<svg xmlns="http://www.w3.org/2000/svg" xmlns:xlink="http://www.w3.org/1999/xlink" width="500" zoomAndPan="magnify" viewBox="0 0 375 374.999991" height="500" preserveAspectRatio="xMidYMid meet" version="1.0"><defs><g/><clipPath id="bc232476ea"><path d="M 187.5 0 C 83.945312 0 0 83.945312 0 187.5 C 0 291.054688 83.945312 375 187.5 375 C 291.054688 375 375 291.054688 375 187.5 C 375 83.945312 291.054688 0 187.5 0 Z M 187.5 0 " clip-rule="nonzero"/></clipPath><clipPath id="abc54fc418"><path d="M 154 117.828125 L 221 117.828125 L 221 191.328125 L 154 191.328125 Z M 154 117.828125 " clip-rule="nonzero"/></clipPath><clipPath id="eeca0aea60"><path d="M 177 161 L 198 161 L 198 191.328125 L 177 191.328125 Z M 177 161 " clip-rule="nonzero"/></clipPath><clipPath id="7245e8bca1"><path d="M 177 117.828125 L 221 117.828125 L 221 173 L 177 173 Z M 177 117.828125 " clip-rule="nonzero"/></clipPath></defs><g clip-path="url(#bc232476ea)"><rect x="-37.5" width="450" fill="#ffffff" y="-37.499999" height="449.999989" fill-opacity="1"/></g><g clip-path="url(#abc54fc418)"><path fill="#0100c8" d="M 215.652344 159.183594 L 211.789062 156.949219 L 207.707031 154.59375 L 209.628906 153.484375 L 215.652344 150.007812 C 218.894531 148.136719 220.707031 144.742188 220.707031 141.25 C 220.707031 139.539062 220.269531 137.804688 219.351562 136.214844 C 216.5625 131.382812 210.386719 129.726562 205.554688 132.515625 L 197.609375 137.101562 L 197.609375 127.925781 C 197.609375 125.136719 196.476562 122.613281 194.648438 120.785156 C 192.824219 118.957031 190.292969 117.828125 187.507812 117.828125 C 181.929688 117.828125 177.40625 122.347656 177.40625 127.925781 L 177.40625 137.101562 L 169.457031 132.511719 C 167.871094 131.59375 166.132812 131.160156 164.417969 131.160156 C 160.933594 131.160156 157.535156 132.972656 155.664062 136.210938 C 152.875 141.042969 154.53125 147.21875 159.359375 150.007812 L 167.308594 154.59375 L 159.359375 159.183594 C 156.121094 161.054688 154.308594 164.449219 154.308594 167.941406 C 154.308594 169.652344 154.746094 171.390625 155.664062 172.980469 C 158.453125 177.8125 164.628906 179.464844 169.457031 176.675781 L 174.003906 174.050781 L 177.40625 172.089844 L 177.40625 181.265625 C 177.40625 184.054688 178.539062 186.582031 180.367188 188.40625 C 182.191406 190.234375 184.71875 191.367188 187.507812 191.367188 C 193.085938 191.367188 197.609375 186.84375 197.609375 181.265625 L 197.609375 172.09375 L 205.554688 176.675781 C 207.144531 177.597656 208.878906 178.03125 210.59375 178.03125 C 214.082031 178.03125 217.476562 176.222656 219.351562 172.980469 C 222.140625 168.152344 220.484375 161.972656 215.652344 159.183594 Z M 215.652344 159.183594 " fill-opacity="1" fill-rule="nonzero"/></g><g clip-path="url(#eeca0aea60)"><path fill="#0094ff" d="M 197.609375 161.949219 L 197.609375 181.265625 C 197.609375 186.84375 193.085938 191.367188 187.507812 191.367188 C 184.71875 191.367188 182.191406 190.234375 180.367188 188.40625 C 178.539062 186.582031 177.40625 184.054688 177.40625 181.265625 L 177.40625 172.089844 L 186.1875 167.019531 L 190.140625 164.734375 L 194.96875 161.949219 Z M 197.609375 161.949219 " fill-opacity="1" fill-rule="nonzero"/></g><path fill="#0094ff" d="M 177.40625 151.808594 L 177.40625 172.089844 L 169.457031 176.675781 C 164.628906 179.464844 158.453125 177.8125 155.664062 172.980469 C 154.746094 171.390625 154.308594 169.652344 154.308594 167.941406 C 154.308594 164.449219 156.121094 161.054688 159.359375 159.183594 L 167.308594 154.59375 L 176.089844 149.527344 Z M 177.40625 151.808594 " fill-opacity="1" fill-rule="nonzero"/><path fill="#0094ff" d="M 177.40625 137.101562 L 177.40625 157.382812 L 176.089844 159.664062 L 167.308594 154.59375 L 159.359375 150.007812 C 154.53125 147.21875 152.875 141.042969 155.664062 136.210938 C 157.535156 132.972656 160.933594 131.160156 164.417969 131.160156 C 166.132812 131.160156 167.871094 131.59375 169.457031 132.511719 Z M 177.40625 137.101562 " fill-opacity="1" fill-rule="nonzero"/><path fill="#0094ff" d="M 219.351562 172.980469 C 217.476562 176.222656 214.082031 178.03125 210.59375 178.03125 C 208.878906 178.03125 207.144531 177.597656 205.554688 176.675781 L 197.605469 172.089844 L 188.824219 167.019531 L 190.140625 164.734375 L 194.96875 161.949219 L 198.925781 159.664062 L 207.707031 154.59375 L 215.652344 159.183594 C 220.484375 161.972656 222.140625 168.152344 219.351562 172.980469 Z M 219.351562 172.980469 " fill-opacity="1" fill-rule="nonzero"/><g clip-path="url(#7245e8bca1)"><path fill="#0100c8" d="M 220.707031 141.25 C 220.707031 144.742188 218.894531 148.136719 215.652344 150.007812 L 207.707031 154.59375 L 198.925781 159.664062 L 194.96875 161.949219 L 190.140625 164.734375 L 186.1875 167.019531 L 177.40625 172.089844 L 177.40625 127.925781 C 177.40625 122.347656 181.929688 117.828125 187.507812 117.828125 C 190.292969 117.828125 192.824219 118.957031 194.648438 120.785156 C 196.476562 122.613281 197.609375 125.136719 197.609375 127.925781 L 197.609375 137.101562 L 205.554688 132.515625 C 210.386719 129.726562 216.5625 131.382812 219.351562 136.214844 C 220.269531 137.804688 220.707031 139.539062 220.707031 141.25 Z M 220.707031 141.25 " fill-opacity="1" fill-rule="nonzero"/></g><g fill="#08082b" fill-opacity="1"><g transform="translate(65.159154, 226.950307)"><g><path d="M 11.6875 0 L 11.6875 -21.546875 L 0.4375 -21.546875 L 0.4375 -26 L 28.484375 -26 L 28.484375 -21.546875 L 17.234375 -21.546875 L 17.234375 0 Z M 11.6875 0 "/></g></g></g><g fill="#08082b" fill-opacity="1"><g transform="translate(97.512984, 226.950307)"><g><path d="M 3.90625 0 L 3.90625 -26 L 18.296875 -26 C 21.785156 -26 24.453125 -25.34375 26.296875 -24.03125 C 28.140625 -22.71875 29.0625 -20.804688 29.0625 -18.296875 C 29.0625 -16.671875 28.660156 -15.296875 27.859375 -14.171875 C 27.066406 -13.054688 25.921875 -12.1875 24.421875 -11.5625 C 22.921875 -10.9375 21.113281 -10.578125 19 -10.484375 L 19.328125 -10.8125 L 20.65625 -10.765625 C 21.664062 -10.722656 22.566406 -10.472656 23.359375 -10.015625 C 24.160156 -9.554688 24.910156 -8.847656 25.609375 -7.890625 L 31.09375 0 L 25.015625 0 L 19.703125 -7.828125 C 19.328125 -8.359375 18.945312 -8.773438 18.5625 -9.078125 C 18.1875 -9.390625 17.707031 -9.613281 17.125 -9.75 C 16.550781 -9.882812 15.796875 -9.953125 14.859375 -9.953125 L 9.40625 -9.953125 L 9.40625 0 Z M 9.40625 -13.984375 L 17.75 -13.984375 C 19.832031 -13.984375 21.34375 -14.3125 22.28125 -14.96875 C 23.21875 -15.632812 23.6875 -16.632812 23.6875 -17.96875 C 23.6875 -19.269531 23.210938 -20.226562 22.265625 -20.84375 C 21.316406 -21.457031 19.785156 -21.765625 17.671875 -21.765625 L 9.40625 -21.765625 Z M 9.40625 -13.984375 "/></g></g></g><g fill="#08082b" fill-opacity="1"><g transform="translate(133.186963, 226.950307)"><g><path d="M 3.90625 0 L 3.90625 -26 L 9.40625 -26 L 9.40625 0 Z M 3.90625 0 "/></g></g></g><g fill="#08082b" fill-opacity="1"><g transform="translate(149.936089, 226.950307)"><g><path d="M 0.4375 0 L 14.859375 -26 L 19.734375 -26 L 34.125 0 L 28.4375 0 L 24.53125 -7.265625 L 27.046875 -5.609375 L 7.453125 -5.609375 L 9.953125 -7.265625 L 6.046875 0 Z M 17.1875 -20.953125 L 10.625 -8.59375 L 9.265625 -9.8125 L 25.234375 -9.8125 L 23.875 -8.59375 L 17.296875 -20.953125 Z M 17.1875 -20.953125 "/></g></g></g><g fill="#08082b" fill-opacity="1"><g transform="translate(187.971064, 226.950307)"><g><path d="M 3.90625 0 L 3.90625 -26 L 9.40625 -26 L 9.40625 -4.53125 L 25.15625 -4.53125 L 25.15625 0 Z M 3.90625 0 "/></g></g></g><g fill="#08082b" fill-opacity="1"><g transform="translate(217.631882, 226.950307)"><g><path d="M 3.984375 0 L 3.984375 -26 L 9.296875 -26 L 21.03125 -8.78125 L 20.0625 -8.78125 L 31.6875 -26 L 37.03125 -26 L 37.03125 0 L 31.90625 0 L 31.90625 -18.921875 L 32.390625 -18.921875 L 22.140625 -4.0625 L 18.84375 -4.0625 L 8.5625 -18.96875 L 9.109375 -18.96875 L 9.109375 0 Z M 3.984375 0 "/></g></g></g><g fill="#08082b" fill-opacity="1"><g transform="translate(262.085824, 226.950307)"><g><path d="M 3.90625 0 L 3.90625 -26 L 9.40625 -26 L 9.40625 0 Z M 3.90625 0 "/></g></g></g><g fill="#08082b" fill-opacity="1"><g transform="translate(278.834961, 226.950307)"><g><path d="M 0.140625 0 L 12.796875 -14.34375 L 12.796875 -12.09375 L 0.59375 -26 L 7.375 -26 L 16.078125 -15.90625 L 15.046875 -15.90625 L 23.796875 -26 L 30.359375 -26 L 18.1875 -12.09375 L 18.1875 -14.34375 L 30.921875 0 L 24.125 0 L 14.828125 -10.515625 L 16.046875 -10.515625 L 6.71875 0 Z M 0.140625 0 "/></g></g></g><g fill="#0094ff" fill-opacity="1"><g transform="translate(152.831622, 252.243425)"><g><path d="M 1.796875 0 L 1.796875 -12.828125 L 5.09375 -12.828125 L 5.09375 -2.65625 L 12.609375 -2.65625 L 12.609375 0 Z M 1.796875 0 "/></g></g></g><g fill="#0094ff" fill-opacity="1"><g transform="translate(168.629423, 252.243425)"><g><path d="M 0.015625 0 L 7.203125 -12.828125 L 10.0625 -12.828125 L 17.25 0 L 13.90625 0 L 12 -3.53125 L 13.390625 -2.546875 L 3.84375 -2.546875 L 5.25 -3.53125 L 3.34375 0 Z M 8.59375 -9.890625 L 5.609375 -4.28125 L 4.890625 -4.984375 L 12.34375 -4.984375 L 11.625 -4.28125 L 8.671875 -9.890625 Z M 8.59375 -9.890625 "/></g></g></g><g fill="#0094ff" fill-opacity="1"><g transform="translate(188.54023, 252.243425)"><g><path d="M 1.796875 0 L 1.796875 -12.828125 L 9.203125 -12.828125 C 10.890625 -12.828125 12.203125 -12.539062 13.140625 -11.96875 C 14.078125 -11.40625 14.546875 -10.609375 14.546875 -9.578125 C 14.546875 -8.773438 14.273438 -8.117188 13.734375 -7.609375 C 13.203125 -7.097656 12.472656 -6.753906 11.546875 -6.578125 L 11.546875 -6.71875 C 12.234375 -6.625 12.832031 -6.441406 13.34375 -6.171875 C 13.863281 -5.898438 14.265625 -5.550781 14.546875 -5.125 C 14.828125 -4.707031 14.96875 -4.195312 14.96875 -3.59375 C 14.96875 -2.84375 14.75 -2.195312 14.3125 -1.65625 C 13.875 -1.125 13.242188 -0.710938 12.421875 -0.421875 C 11.597656 -0.140625 10.609375 0 9.453125 0 Z M 4.984375 -2.390625 L 9.234375 -2.390625 C 9.472656 -2.390625 9.707031 -2.394531 9.9375 -2.40625 C 10.175781 -2.425781 10.40625 -2.460938 10.625 -2.515625 C 10.84375 -2.578125 11.039062 -2.664062 11.21875 -2.78125 C 11.394531 -2.894531 11.53125 -3.039062 11.625 -3.21875 C 11.71875 -3.394531 11.765625 -3.609375 11.765625 -3.859375 C 11.765625 -4.128906 11.71875 -4.347656 11.625 -4.515625 C 11.53125 -4.679688 11.394531 -4.816406 11.21875 -4.921875 C 11.050781 -5.035156 10.859375 -5.117188 10.640625 -5.171875 C 10.429688 -5.234375 10.207031 -5.269531 9.96875 -5.28125 C 9.726562 -5.300781 9.488281 -5.3125 9.25 -5.3125 L 4.984375 -5.3125 Z M 4.984375 -7.6875 L 8.859375 -7.6875 C 9.742188 -7.6875 10.378906 -7.796875 10.765625 -8.015625 C 11.160156 -8.242188 11.359375 -8.597656 11.359375 -9.078125 C 11.359375 -9.554688 11.160156 -9.90625 10.765625 -10.125 C 10.378906 -10.34375 9.738281 -10.453125 8.84375 -10.453125 L 4.984375 -10.453125 Z M 4.984375 -7.6875 "/></g></g></g><g fill="#0094ff" fill-opacity="1"><g transform="translate(207.359088, 252.243425)"><g><path d="M 7.53125 0.203125 C 6.695312 0.203125 5.878906 0.144531 5.078125 0.03125 C 4.273438 -0.0820312 3.53125 -0.25 2.84375 -0.46875 C 2.15625 -0.695312 1.550781 -0.972656 1.03125 -1.296875 L 2.09375 -3.75 C 2.675781 -3.4375 3.257812 -3.175781 3.84375 -2.96875 C 4.4375 -2.769531 5.050781 -2.625 5.6875 -2.53125 C 6.332031 -2.445312 7.007812 -2.40625 7.71875 -2.40625 C 8.695312 -2.40625 9.445312 -2.507812 9.96875 -2.71875 C 10.5 -2.9375 10.765625 -3.269531 10.765625 -3.71875 C 10.765625 -3.988281 10.679688 -4.203125 10.515625 -4.359375 C 10.359375 -4.515625 10.132812 -4.628906 9.84375 -4.703125 C 9.550781 -4.773438 9.203125 -4.832031 8.796875 -4.875 L 5.703125 -5.265625 C 4.242188 -5.441406 3.160156 -5.84375 2.453125 -6.46875 C 1.742188 -7.09375 1.390625 -7.914062 1.390625 -8.9375 C 1.390625 -9.789062 1.65625 -10.519531 2.1875 -11.125 C 2.71875 -11.738281 3.457031 -12.207031 4.40625 -12.53125 C 5.363281 -12.863281 6.472656 -13.03125 7.734375 -13.03125 C 8.515625 -13.03125 9.257812 -12.96875 9.96875 -12.84375 C 10.675781 -12.726562 11.328125 -12.554688 11.921875 -12.328125 C 12.515625 -12.109375 13.035156 -11.832031 13.484375 -11.5 L 12.4375 -9.125 C 11.738281 -9.582031 11.003906 -9.914062 10.234375 -10.125 C 9.460938 -10.332031 8.566406 -10.4375 7.546875 -10.4375 C 6.929688 -10.4375 6.398438 -10.382812 5.953125 -10.28125 C 5.515625 -10.1875 5.179688 -10.046875 4.953125 -9.859375 C 4.722656 -9.671875 4.609375 -9.429688 4.609375 -9.140625 C 4.609375 -8.753906 4.773438 -8.472656 5.109375 -8.296875 C 5.453125 -8.128906 5.957031 -8 6.625 -7.90625 L 9.53125 -7.5 C 11 -7.300781 12.113281 -6.898438 12.875 -6.296875 C 13.632812 -5.703125 14.015625 -4.882812 14.015625 -3.84375 C 14.015625 -3.019531 13.753906 -2.300781 13.234375 -1.6875 C 12.710938 -1.082031 11.960938 -0.613281 10.984375 -0.28125 C 10.015625 0.0390625 8.863281 0.203125 7.53125 0.203125 Z M 7.53125 0.203125 "/></g></g></g></svg>