<svg xmlns="http://www.w3.org/2000/svg" xmlns:xlink="http://www.w3.org/1999/xlink" width="500" zoomAndPan="magnify" viewBox="0 0 375 374.999991" height="500" preserveAspectRatio="xMidYMid meet" version="1.0"><defs><clipPath id="3897800220"><path d="M 187.5 0 C 83.945312 0 0 83.945312 0 187.5 C 0 291.054688 83.945312 375 187.5 375 C 291.054688 375 375 291.054688 375 187.5 C 375 83.945312 291.054688 0 187.5 0 Z M 187.5 0 " clip-rule="nonzero"/></clipPath><clipPath id="2d44fbd452"><path d="M 45 30.570312 L 330 30.570312 L 330 344.070312 L 45 344.070312 Z M 45 30.570312 " clip-rule="nonzero"/></clipPath><clipPath id="f39c9461e4"><path d="M 144 218 L 231 218 L 231 344.070312 L 144 344.070312 Z M 144 218 " clip-rule="nonzero"/></clipPath><clipPath id="b68b6cdee1"><path d="M 144 30.570312 L 330 30.570312 L 330 263 L 144 263 Z M 144 30.570312 " clip-rule="nonzero"/></clipPath></defs><g clip-path="url(#3897800220)"><rect x="-37.5" width="450" fill="#08082b" y="-37.499999" height="449.999989" fill-opacity="1"/></g><g clip-path="url(#2d44fbd452)"><path fill="#ffffff" d="M 307.65625 207.046875 L 291.15625 197.523438 L 273.742188 187.472656 L 281.9375 182.734375 L 307.65625 167.890625 C 321.480469 159.917969 329.214844 145.425781 329.214844 130.523438 C 329.214844 123.214844 327.347656 115.8125 323.4375 109.027344 C 311.535156 88.414062 285.175781 81.355469 264.566406 93.25 L 230.648438 112.824219 L 230.648438 73.667969 C 230.648438 61.765625 225.820312 50.988281 218.023438 43.191406 C 210.230469 35.398438 199.441406 30.570312 187.546875 30.570312 C 163.742188 30.570312 144.441406 49.855469 144.441406 73.660156 L 144.441406 112.816406 L 110.527344 93.242188 C 103.746094 89.320312 96.332031 87.460938 89.023438 87.460938 C 74.136719 87.460938 59.644531 95.199219 51.65625 109.019531 C 39.761719 129.636719 46.820312 155.996094 67.433594 167.890625 L 101.34375 187.46875 L 101.351562 187.472656 L 67.433594 207.046875 C 53.613281 215.027344 45.875 229.523438 45.875 244.421875 C 45.875 251.734375 47.734375 259.140625 51.65625 265.925781 C 63.554688 286.542969 89.917969 293.609375 110.527344 281.699219 L 129.925781 270.503906 L 144.441406 262.125 L 144.441406 301.28125 C 144.441406 313.183594 149.269531 323.964844 157.070312 331.757812 C 164.859375 339.554688 175.652344 344.386719 187.546875 344.386719 C 211.347656 344.386719 230.648438 325.082031 230.648438 301.28125 L 230.648438 262.136719 L 264.558594 281.707031 C 271.335938 285.625 278.75 287.484375 286.0625 287.484375 C 300.953125 287.484375 315.441406 279.757812 323.429688 265.933594 C 335.332031 245.316406 328.265625 218.957031 307.65625 207.046875 Z M 307.65625 207.046875 " fill-opacity="1" fill-rule="nonzero"/></g><g clip-path="url(#f39c9461e4)"><path fill="#d0d0d4" d="M 230.648438 218.851562 L 230.648438 301.28125 C 230.648438 325.082031 211.347656 344.386719 187.546875 344.386719 C 175.652344 344.386719 164.859375 339.554688 157.070312 331.757812 C 149.269531 323.964844 144.441406 313.183594 144.441406 301.28125 L 144.441406 262.125 L 181.917969 240.488281 L 198.789062 230.738281 L 219.382812 218.851562 Z M 230.648438 218.851562 " fill-opacity="1" fill-rule="nonzero"/></g><path fill="#d0d0d4" d="M 144.441406 175.574219 L 144.441406 262.125 L 110.527344 281.699219 C 89.917969 293.609375 63.554688 286.542969 51.65625 265.925781 C 47.734375 259.140625 45.875 251.734375 45.875 244.421875 C 45.875 229.523438 53.613281 215.027344 67.433594 207.046875 L 101.351562 187.472656 L 138.820312 165.835938 Z M 144.441406 175.574219 " fill-opacity="1" fill-rule="nonzero"/><path fill="#d0d0d4" d="M 144.441406 112.816406 L 144.441406 199.367188 L 138.816406 209.101562 L 101.34375 187.46875 L 67.433594 167.890625 C 46.820312 155.996094 39.761719 129.636719 51.65625 109.019531 C 59.644531 95.199219 74.136719 87.460938 89.023438 87.460938 C 96.332031 87.460938 103.746094 89.320312 110.527344 93.242188 Z M 144.441406 112.816406 " fill-opacity="1" fill-rule="nonzero"/><path fill="#d0d0d4" d="M 323.429688 265.933594 C 315.441406 279.757812 300.953125 287.484375 286.0625 287.484375 C 278.75 287.484375 271.335938 285.625 264.558594 281.707031 L 230.644531 262.132812 L 193.164062 240.496094 L 198.789062 230.746094 L 219.382812 218.859375 L 236.269531 209.109375 L 273.742188 187.472656 L 307.65625 207.046875 C 328.265625 218.957031 335.332031 245.316406 323.429688 265.933594 Z M 323.429688 265.933594 " fill-opacity="1" fill-rule="nonzero"/><g clip-path="url(#b68b6cdee1)"><path fill="#ffffff" d="M 329.214844 130.523438 C 329.214844 145.425781 321.480469 159.917969 307.65625 167.890625 L 273.742188 187.46875 L 236.269531 209.101562 L 219.382812 218.851562 L 198.789062 230.738281 L 181.917969 240.488281 L 144.441406 262.125 L 144.441406 73.660156 C 144.441406 49.855469 163.742188 30.570312 187.546875 30.570312 C 199.441406 30.570312 210.230469 35.398438 218.023438 43.191406 C 225.820312 50.988281 230.648438 61.765625 230.648438 73.667969 L 230.648438 112.824219 L 264.566406 93.25 C 285.175781 81.355469 311.535156 88.414062 323.4375 109.027344 C 327.347656 115.8125 329.214844 123.214844 329.214844 130.523438 Z M 329.214844 130.523438 " fill-opacity="1" fill-rule="nonzero"/></g></svg>